<svg width="41" height="24" viewBox="0 0 41 24" fill="none" xmlns="http://www.w3.org/2000/svg">
<path d="M23.6785 20.2905C30.1018 22.2884 40.4764 20.2465 40.5685 11.3487C40.6607 2.45068 29.5884 7.75111 29.5884 7.75111L23.6785 20.2905Z" fill="#FFC250"/>
<path d="M37.4454 6.35634C32.9625 5.58791 29.5577 11.5303 25.7908 17.7291C22.0239 23.9278 12.2148 26.3848 5.94729 21.172C-0.320263 15.9591 -2.97289 6.82937 4.72264 1.38363C12.4182 -4.06212 17.222 8.30144 23.847 8.64128C30.4718 8.98113 30.5202 4.055 37.4454 6.35634Z" fill="#FFD064"/>
<ellipse cx="1.96745" cy="1.96809" rx="1.96745" ry="1.96809" transform="matrix(-1 0 0 1 7.33936 9.65759)" fill="#FFE19D"/>
<circle cx="1.47559" cy="1.47559" r="1.47559" transform="matrix(-1 0 0 1 10.6184 11.6256)" fill="#FFE19D"/>
<circle cx="1.14768" cy="1.14768" r="1.14768" transform="matrix(-1 0 0 1 7.66724 13.9216)" fill="#FFE19D"/>
</svg>
